<?xml version="1.0" encoding="UTF-8"?>
<svg version="1.1" xmlns="http://www.w3.org/2000/svg" width="135" height="135">
<path d="M0 0 C44.55 0 89.1 0 135 0 C135 44.55 135 89.1 135 135 C90.45 135 45.9 135 0 135 C0 90.45 0 45.9 0 0 Z " fill="#FEFEFE" transform="translate(0,0)"/>
<path d="M0 0 C0.86882812 0.35658691 1.73765625 0.71317383 2.6328125 1.08056641 C4.19128906 1.72711182 4.19128906 1.72711182 5.78125 2.38671875 C7.10131312 2.92817999 8.42164449 3.46898754 9.7421875 4.00927734 C13.48076036 5.53987201 17.2168945 7.07631579 20.95214844 8.61499023 C23.30365607 9.58344658 25.65571863 10.55054658 28.0078125 11.51757812 C29.50524184 12.1340332 31.00263888 12.75056674 32.5 13.3671875 C33.20201538 13.65571091 33.90403076 13.94423431 34.62731934 14.24150085 C39.55200189 16.27209469 39.55200189 16.27209469 41.78125 17.38671875 C41.78125 18.70671875 41.78125 20.02671875 41.78125 21.38671875 C39.80125 21.38671875 37.82125 21.38671875 35.78125 21.38671875 C35.78125 40.85671875 35.78125 60.32671875 35.78125 80.38671875 C32.81125 80.38671875 29.84125 80.38671875 26.78125 80.38671875 C26.45125 75.10671875 26.12125 69.82671875 25.78125 64.38671875 C25.12125 64.38671875 24.46125 64.38671875 23.78125 64.38671875 C23.28625 66.36671875 23.28625 66.36671875 22.78125 68.38671875 C23.44125 68.71671875 24.10125 69.04671875 24.78125 69.38671875 C22.80125 69.38671875 20.82125 69.38671875 18.78125 69.38671875 C19.44125 69.05671875 20.10125 68.72671875 20.78125 68.38671875 C20.78125 66.73671875 20.78125 65.08671875 20.78125 63.38671875 C20.12125 63.05671875 19.46125 62.72671875 18.78125 62.38671875 C21.09125 62.38671875 23.40125 62.38671875 25.78125 62.38671875 C25.78125 49.18671875 25.78125 35.98671875 25.78125 22.38671875 C23.14125 22.38671875 20.50125 22.38671875 17.78125 22.38671875 C17.78125 41.52671875 17.78125 60.66671875 17.78125 80.38671875 C14.48125 80.38671875 11.18125 80.38671875 7.78125 80.38671875 C7.78125 64.54671875 7.78125 48.70671875 7.78125 32.38671875 C6.46125 32.38671875 5.14125 32.38671875 3.78125 32.38671875 C3.45125 33.70671875 3.12125 35.02671875 2.78125 36.38671875 C3.77125 36.88171875 3.77125 36.88171875 4.78125 37.38671875 C2.80125 37.38671875 0.82125 37.38671875 -1.21875 37.38671875 C-0.72375 41.84171875 -0.72375 41.84171875 -0.21875 46.38671875 C1.76125 46.38671875 3.74125 46.38671875 5.78125 46.38671875 C6.11125 47.04671875 6.44125 47.70671875 6.78125 48.38671875 C3.81125 47.89171875 3.81125 47.89171875 0.78125 47.38671875 C0.78125 48.04671875 0.78125 48.70671875 0.78125 49.38671875 C2.43125 49.38671875 4.08125 49.38671875 5.78125 49.38671875 C5.78125 50.70671875 5.78125 52.02671875 5.78125 53.38671875 C3.80125 53.38671875 1.82125 53.38671875 -0.21875 53.38671875 C-0.21875 55.36671875 -0.21875 57.34671875 -0.21875 59.38671875 C1.10125 59.38671875 2.42125 59.38671875 3.78125 59.38671875 C3.78125 62.35671875 3.78125 65.32671875 3.78125 68.38671875 C4.77125 68.88171875 4.77125 68.88171875 5.78125 69.38671875 C3.80125 69.38671875 1.82125 69.38671875 -0.21875 69.38671875 C-0.21875 73.34671875 -0.21875 77.30671875 -0.21875 81.38671875 C-4.17875 81.38671875 -8.13875 81.38671875 -12.21875 81.38671875 C-12.21875 61.91671875 -12.21875 42.44671875 -12.21875 22.38671875 C-14.85875 22.38671875 -17.49875 22.38671875 -20.21875 22.38671875 C-19.72375 26.34671875 -19.72375 26.34671875 -19.21875 30.38671875 C-16.24875 30.88171875 -16.24875 30.88171875 -13.21875 31.38671875 C-13.21875 33.03671875 -13.21875 34.68671875 -13.21875 36.38671875 C-16.18875 36.88171875 -16.18875 36.88171875 -19.21875 37.38671875 C-19.21875 40.35671875 -19.21875 43.32671875 -19.21875 46.38671875 C-16.24875 46.88171875 -16.24875 46.88171875 -13.21875 47.38671875 C-13.21875 49.03671875 -13.21875 50.68671875 -13.21875 52.38671875 C-16.18875 52.88171875 -16.18875 52.88171875 -19.21875 53.38671875 C-19.21875 56.35671875 -19.21875 59.32671875 -19.21875 62.38671875 C-17.23875 62.38671875 -15.25875 62.38671875 -13.21875 62.38671875 C-13.35924518 63.86640199 -13.50629826 65.34546391 -13.65625 66.82421875 C-13.73746094 67.64792969 -13.81867187 68.47164063 -13.90234375 69.3203125 C-14.21875 71.38671875 -14.21875 71.38671875 -15.21875 72.38671875 C-16.88492115 72.42735707 -18.55263095 72.42943975 -20.21875 72.38671875 C-20.21875 75.02671875 -20.21875 77.66671875 -20.21875 80.38671875 C-23.51875 80.38671875 -26.81875 80.38671875 -30.21875 80.38671875 C-30.55748468 75.90794363 -30.88875737 71.42864578 -31.21875 66.94921875 C-31.31414063 65.68916016 -31.40953125 64.42910156 -31.5078125 63.13085938 C-31.99048267 56.52862097 -32.33400087 50.0064404 -32.21875 43.38671875 C-31.55875 43.38671875 -30.89875 43.38671875 -30.21875 43.38671875 C-30.38375 42.33484375 -30.54875 41.28296875 -30.71875 40.19921875 C-31.47586395 34.28093363 -31.30044679 28.34150696 -31.21875 22.38671875 C-33.52875 22.38671875 -35.83875 22.38671875 -38.21875 22.38671875 C-38.21875 34.59671875 -38.21875 46.80671875 -38.21875 59.38671875 C-36.56875 59.71671875 -34.91875 60.04671875 -33.21875 60.38671875 C-33.528125 61.77890625 -33.528125 61.77890625 -33.84375 63.19921875 C-34.58567966 66.53845277 -34.58567966 66.53845277 -32.21875 69.38671875 C-33.20875 69.38671875 -34.19875 69.38671875 -35.21875 69.38671875 C-35.87875 68.39671875 -36.53875 67.40671875 -37.21875 66.38671875 C-37.21875 67.37671875 -37.21875 68.36671875 -37.21875 69.38671875 C-37.87875 69.38671875 -38.53875 69.38671875 -39.21875 69.38671875 C-39.21875 73.01671875 -39.21875 76.64671875 -39.21875 80.38671875 C-42.18875 80.38671875 -45.15875 80.38671875 -48.21875 80.38671875 C-48.21875 61.57671875 -48.21875 42.76671875 -48.21875 23.38671875 C-45.24875 23.38671875 -42.27875 23.38671875 -39.21875 23.38671875 C-39.21875 22.72671875 -39.21875 22.06671875 -39.21875 21.38671875 C-44.82875 21.38671875 -50.43875 21.38671875 -56.21875 21.38671875 C-55.88875 19.73671875 -55.55875 18.08671875 -55.21875 16.38671875 C-52.73807407 15.13095369 -50.59130596 14.27218149 -47.96875 13.44921875 C-46.50116306 12.94689914 -45.03502802 12.44031931 -43.5703125 11.9296875 C-42.83586914 11.67622559 -42.10142578 11.42276367 -41.34472656 11.16162109 C-37.16830635 9.63934758 -33.20015202 7.66766179 -29.1875 5.765625 C-25.65298302 4.12393488 -22.06862431 2.67169863 -18.43359375 1.26953125 C-16.3766435 0.44965337 -14.40351687 -0.47224739 -12.40625 -1.42578125 C-7.75950796 -3.15692044 -4.4441625 -1.8395012 0 0 Z " fill="#CDD8CA" transform="translate(72.21875,13.61328125)"/>
<path d="M0 0 C5.61 0 11.22 0 17 0 C17 0.66 17 1.32 17 2 C14.03 2 11.06 2 8 2 C8 20.81 8 39.62 8 59 C10.97 59 13.94 59 17 59 C16.97679688 58.25234375 16.95359375 57.5046875 16.9296875 56.734375 C16.90261719 55.25710937 16.90261719 55.25710937 16.875 53.75 C16.85179688 52.77546875 16.82859375 51.8009375 16.8046875 50.796875 C17.00137219 47.9803502 17.55431084 46.39050964 19 44 C19.66 45.32 20.32 46.64 21 48 C21.99 47.505 21.99 47.505 23 47 C22.34 46.01 21.68 45.02 21 44 C21.375 41.3125 21.375 41.3125 22 39 C20.68 38.67 19.36 38.34 18 38 C18 25.79 18 13.58 18 1 C20.31 1 22.62 1 25 1 C25.19590444 4.47874757 25.38031592 7.95800904 25.5625 11.4375 C25.61857422 12.43072266 25.67464844 13.42394531 25.73242188 14.44726562 C25.78076172 15.39150391 25.82910156 16.33574219 25.87890625 17.30859375 C25.9260376 18.18314209 25.97316895 19.05769043 26.02172852 19.95874023 C26 22 26 22 25 23 C24.98303826 25.66832963 25.02898701 28.30742795 25.12109375 30.97265625 C25.14470474 31.77029892 25.16831573 32.56794159 25.19264221 33.38975525 C25.2694626 35.94750973 25.35340715 38.50497527 25.4375 41.0625 C25.49070233 42.79230338 25.54344283 44.52212103 25.59570312 46.25195312 C25.72510242 50.50148644 25.86089312 54.75077382 26 59 C29.3 59 32.6 59 36 59 C36 56.36 36 53.72 36 51 C38.475 50.505 38.475 50.505 41 50 C41.33 47.36 41.66 44.72 42 42 C40.02 42 38.04 42 36 42 C36 38.37 36 34.74 36 31 C38.31 31 40.62 31 43 31 C43 29.35 43 27.7 43 26 C40.69 26 38.38 26 36 26 C36 22.37 36 18.74 36 15 C38.31 15 40.62 15 43 15 C43 13.35 43 11.7 43 10 C40.69 10 38.38 10 36 10 C36 7.03 36 4.06 36 1 C38.64 1 41.28 1 44 1 C44 20.47 44 39.94 44 60 C47.96 60 51.92 60 56 60 C56 56.04 56 52.08 56 48 C57.98 47.505 57.98 47.505 60 47 C60 44.03 60 41.06 60 38 C58.68 38 57.36 38 56 38 C56 36.02 56 34.04 56 32 C57.98 31.67 59.96 31.34 62 31 C62 30.34 62 29.68 62 29 C60.35 28.67 58.7 28.34 57 28 C57 27.34 57 26.68 57 26 C56.34 26 55.68 26 55 26 C55 22.7 55 19.4 55 16 C56.32 15.67 57.64 15.34 59 15 C59.33 13.35 59.66 11.7 60 10 C61.32 10.33 62.64 10.66 64 11 C64 26.84 64 42.68 64 59 C67.3 59 70.6 59 74 59 C74 39.86 74 20.72 74 1 C76.64 1 79.28 1 82 1 C82 14.2 82 27.4 82 41 C80.35 41.33 78.7 41.66 77 42 C77 43.65 77 45.3 77 47 C77.66 47 78.32 47 79 47 C79.33 45.35 79.66 43.7 80 42 C81.485 42.495 81.485 42.495 83 43 C83 48.28 83 53.56 83 59 C85.97 59 88.94 59 92 59 C92 39.53 92 20.06 92 0 C93.98 0 95.96 0 98 0 C98 0.33 98 0.66 98 1 C96.35 1 94.7 1 93 1 C93 20.47 93 39.94 93 60 C94.65 60 96.3 60 98 60 C98 64.95 98 69.9 98 75 C65.66 75 33.32 75 0 75 C0 70.05 0 65.1 0 60 C2.31 60 4.62 60 7 60 C7 40.53 7 21.06 7 1 C4.69 1 2.38 1 0 1 C0 0.67 0 0.34 0 0 Z " fill="#DDE4DB" transform="translate(16,35)"/>
<path d="M0 0 C32.34 0 64.68 0 98 0 C98 4.62 98 9.24 98 14 C65.66 14 33.32 14 0 14 C0 9.38 0 4.76 0 0 Z " fill="#CFDACC" transform="translate(16,96)"/>
<path d="M0 0 C3.3 0 6.6 0 10 0 C10 2.31 10 4.62 10 7 C12.64 7 15.28 7 18 7 C18.33 4.69 18.66 2.38 19 0 C21.97 0 24.94 0 28 0 C28 8.91 28 17.82 28 27 C27.01 27.33 26.02 27.66 25 28 C25.99 28 26.98 28 28 28 C28 33.94 28 39.88 28 46 C21 46 21 46 19 45 C19 33.12 19 21.24 19 9 C17.68 9 16.36 9 15 9 C14.67 10.32 14.34 11.64 14 13 C14.66 13.33 15.32 13.66 16 14 C14.02 14 12.04 14 10 14 C10.33 16.97 10.66 19.94 11 23 C12.98 23 14.96 23 17 23 C17.33 23.66 17.66 24.32 18 25 C16.02 24.67 14.04 24.34 12 24 C12 24.66 12 25.32 12 26 C13.65 26 15.3 26 17 26 C17 27.32 17 28.64 17 30 C15.02 30 13.04 30 11 30 C11 31.98 11 33.96 11 36 C12.32 36 13.64 36 15 36 C15 38.97 15 41.94 15 45 C15.66 45.33 16.32 45.66 17 46 C15.02 46 13.04 46 11 46 C11 49.96 11 53.92 11 58 C7.37 57.67 3.74 57.34 0 57 C0 38.19 0 19.38 0 0 Z " fill="#CFDACC" transform="translate(61,37)"/>
<path d="M0 0 C3.3 0 6.6 0 10 0 C10.33 2.31 10.66 4.62 11 7 C13.97 7.495 13.97 7.495 17 8 C17 9.65 17 11.3 17 13 C15.02 13.33 13.04 13.66 11 14 C11 16.97 11 19.94 11 23 C12.98 23.33 14.96 23.66 17 24 C17 25.65 17 27.3 17 29 C15.02 29.33 13.04 29.66 11 30 C11 32.97 11 35.94 11 39 C12.98 39 14.96 39 17 39 C16.85950482 40.47968324 16.71245174 41.95874516 16.5625 43.4375 C16.48128906 44.26121094 16.40007813 45.08492187 16.31640625 45.93359375 C16 48 16 48 15 49 C13.33382885 49.04063832 11.66611905 49.042721 10 49 C10 51.64 10 54.28 10 57 C6.7 57 3.4 57 0 57 C-0.33873468 52.52122488 -0.67000737 48.04192703 -1 43.5625 C-1.09539063 42.30244141 -1.19078125 41.04238281 -1.2890625 39.74414062 C-1.77173267 33.14190222 -2.11525087 26.61972165 -2 20 C-1.34 20 -0.68 20 0 20 C-0.08378906 19.05898438 -0.16757812 18.11796875 -0.25390625 17.1484375 C-0.35574219 15.90320312 -0.45757812 14.65796875 -0.5625 13.375 C-0.66691406 12.14523438 -0.77132812 10.91546875 -0.87890625 9.6484375 C-0.99191061 6.24372538 -0.69045563 3.32441602 0 0 Z " fill="#CFD9CC" transform="translate(42,37)"/>
<path d="M0 0 C2.97 0 5.94 0 9 0 C9 11.88 9 23.76 9 36 C10.65 36 12.3 36 14 36 C14.59732819 38.76264289 15 41.16032769 15 44 C15.33 44.66 15.66 45.32 16 46 C15.01 46 14.02 46 13 46 C12.34 45.01 11.68 44.02 11 43 C11 43.99 11 44.98 11 46 C10.34 46 9.68 46 9 46 C9 49.63 9 53.26 9 57 C6.03 57 3.06 57 0 57 C0 38.19 0 19.38 0 0 Z " fill="#CDD8CA" transform="translate(24,37)"/>
<path d="M0 0 C2.97 0 5.94 0 9 0 C9 18.81 9 37.62 9 57 C6.03 57 3.06 57 0 57 C-0.33 51.72 -0.66 46.44 -1 41 C-1.66 41 -2.32 41 -3 41 C-3.33 42.32 -3.66 43.64 -4 45 C-3.34 45.33 -2.68 45.66 -2 46 C-3.98 46 -5.96 46 -8 46 C-7.01 45.505 -7.01 45.505 -6 45 C-6 43.35 -6 41.7 -6 40 C-6.66 39.67 -7.32 39.34 -8 39 C-5.36 39 -2.72 39 0 39 C0 26.13 0 13.26 0 0 Z " fill="#CDD8CA" transform="translate(99,37)"/>
<path d="M0 0 C24.75 0 49.5 0 75 0 C75 0.66 75 1.32 75 2 C72.03 2 69.06 2 66 2 C66 14.87 66 27.74 66 41 C65.67 41 65.34 41 65 41 C65 27.8 65 14.6 65 1 C62.36 1 59.72 1 57 1 C57 20.14 57 39.28 57 59 C53.7 59 50.4 59 47 59 C47 55.04 47 51.08 47 47 C49.97 47.33 52.94 47.66 56 48 C56 42.06 56 36.12 56 30 C54.35 30.33 52.7 30.66 51 31 C50.505 30.01 50.505 30.01 50 29 C51.98 29 53.96 29 56 29 C56 20.09 56 11.18 56 2 C53.03 2 50.06 2 47 2 C47 4.64 47 7.28 47 10 C44.03 9.67 41.06 9.34 38 9 C38 6.69 38 4.38 38 2 C34.7 2 31.4 2 28 2 C28 20.81 28 39.62 28 59 C31.3 59 34.6 59 38 59 C38 59.33 38 59.66 38 60 C34.37 60 30.74 60 27 60 C27 40.53 27 21.06 27 1 C24.36 1.33 21.72 1.66 19 2 C17.16753945 2.06027831 15.33327489 2.08796215 13.5 2.0625 C12.6440625 2.05347656 11.788125 2.04445312 10.90625 2.03515625 C10.2771875 2.02355469 9.648125 2.01195312 9 2 C9 3.98 9 5.96 9 8 C8.67 8 8.34 8 8 8 C8 5.69 8 3.38 8 1 C5.69 1 3.38 1 1 1 C1 13.21 1 25.42 1 38 C0.67 38 0.34 38 0 38 C0 25.46 0 12.92 0 0 Z " fill="#DDE4DB" transform="translate(33,35)"/>
<path d="M0 0 C2.64 0 5.28 0 8 0 C8 13.2 8 26.4 8 40 C5.525 40.495 5.525 40.495 3 41 C3 42.65 3 44.3 3 46 C3.66 46 4.32 46 5 46 C5.33 44.35 5.66 42.7 6 41 C6.66 41 7.32 41 8 41 C8 46.94 8 52.88 8 59 C5.36 59 2.72 59 0 59 C0 39.53 0 20.06 0 0 Z " fill="#FCFCFC" transform="translate(90,36)"/>
<path d="M0 0 C2.97 0 5.94 0 9 0 C9 8.91 9 17.82 9 27 C8.01 27.33 7.02 27.66 6 28 C6.99 28 7.98 28 9 28 C9 33.94 9 39.88 9 46 C2 46 2 46 0 45 C0 33.12 0 21.24 0 9 C-1.32 9 -2.64 9 -4 9 C-4.33 10.32 -4.66 11.64 -5 13 C-4.34 13.33 -3.68 13.66 -3 14 C-4.98 14 -6.96 14 -9 14 C-8.34 13.67 -7.68 13.34 -7 13 C-7 11.35 -7 9.7 -7 8 C-7.66 7.67 -8.32 7.34 -9 7 C-6.36 7 -3.72 7 -1 7 C-0.67 4.69 -0.34 2.38 0 0 Z " fill="#CDD8CA" transform="translate(80,37)"/>
<path d="M0 0 C2.31 0 4.62 0 7 0 C7.19590444 3.47874757 7.38031592 6.95800904 7.5625 10.4375 C7.61857422 11.43072266 7.67464844 12.42394531 7.73242188 13.44726562 C7.78076172 14.39150391 7.82910156 15.33574219 7.87890625 16.30859375 C7.9260376 17.18314209 7.97316895 18.05769043 8.02172852 18.95874023 C8 21 8 21 7 22 C6.91141354 24.73894085 6.88476521 27.4525327 6.90234375 30.19140625 C6.9037587 31.01124496 6.90517365 31.83108368 6.90663147 32.67576599 C6.91224711 35.30471382 6.92480221 37.93357773 6.9375 40.5625 C6.94251299 42.34049357 6.94707624 44.11848846 6.95117188 45.89648438 C6.96222161 50.26435545 6.97949669 54.63216348 7 59 C4.69 59 2.38 59 0 59 C0 53.72 0 48.44 0 43 C0.99 43.66 1.98 44.32 3 45 C3 45.66 3 46.32 3 47 C3.99 46.505 3.99 46.505 5 46 C4.34 45.01 3.68 44.02 3 43 C3.375 40.3125 3.375 40.3125 4 38 C2.68 37.67 1.36 37.34 0 37 C0 24.79 0 12.58 0 0 Z " fill="#FDFEFD" transform="translate(34,36)"/>
<path d="M0 0 C2.64 0 5.28 0 8 0 C8 19.47 8 38.94 8 59 C5.69 59 3.38 59 1 59 C1 56.03 1 53.06 1 50 C2.98 49.505 2.98 49.505 5 49 C5.33 46.36 5.66 43.72 6 41 C4.02 41 2.04 41 0 41 C0 37.37 0 33.74 0 30 C2.31 30 4.62 30 7 30 C7 28.35 7 26.7 7 25 C4.69 25 2.38 25 0 25 C0 21.37 0 17.74 0 14 C2.31 14 4.62 14 7 14 C7 12.35 7 10.7 7 9 C4.69 9 2.38 9 0 9 C0 6.03 0 3.06 0 0 Z " fill="#FCFCFC" transform="translate(52,36)"/>
<path d="M0 0 C0.33 0 0.66 0 1 0 C1 18.81 1 37.62 1 57 C-2.3 57 -5.6 57 -9 57 C-9 53.04 -9 49.08 -9 45 C-6.03 45.33 -3.06 45.66 0 46 C0 40.06 0 34.12 0 28 C-1.65 28.33 -3.3 28.66 -5 29 C-5.33 28.34 -5.66 27.68 -6 27 C-4.02 27 -2.04 27 0 27 C0 18.09 0 9.18 0 0 Z " fill="#D1DBCE" transform="translate(89,37)"/>
<path d="M0 0 C0 9.57 0 19.14 0 29 C-2.31 29 -4.62 29 -7 29 C-7 25.04 -7 21.08 -7 17 C-5.68 16.67 -4.36 16.34 -3 16 C-3 13.03 -3 10.06 -3 7 C-4.32 7 -5.64 7 -7 7 C-7 5.02 -7 3.04 -7 1 C-1.125 0 -1.125 0 0 0 Z " fill="#FDFDFD" transform="translate(79,66)"/>
<path d="M0 0 C2.97 0 5.94 0 9 0 C9 5.61 9 11.22 9 17 C2 17 2 17 0 16 C0 10.72 0 5.44 0 0 Z " fill="#CDD8CA" transform="translate(80,66)"/>
<path d="M0 0 C2.97 0 5.94 0 9 0 C9 4.29 9 8.58 9 13 C7.35 13.33 5.7 13.66 4 14 C3 13 3 13 2.9375 10.4375 C2.958125 9.633125 2.97875 8.82875 3 8 C2.01 8 1.02 8 0 8 C0 5.36 0 2.72 0 0 Z " fill="#CDD8CA" transform="translate(80,37)"/>
<path d="M0 0 C1.98 0 3.96 0 6 0 C6.33 0.66 6.66 1.32 7 2 C4.03 1.505 4.03 1.505 1 1 C1 1.66 1 2.32 1 3 C2.65 3 4.3 3 6 3 C6 4.32 6 5.64 6 7 C4.02 7 2.04 7 0 7 C0 8.98 0 10.96 0 13 C1.32 13 2.64 13 4 13 C4 15.97 4 18.94 4 22 C4.66 22.33 5.32 22.66 6 23 C4.02 23 2.04 23 0 23 C0 26.96 0 30.92 0 35 C-0.33 35 -0.66 35 -1 35 C-1 25.1 -1 15.2 -1 5 C1.97 5.495 1.97 5.495 5 6 C5 5.34 5 4.68 5 4 C3.35 4 1.7 4 0 4 C0 2.68 0 1.36 0 0 Z " fill="#6E6E6E" transform="translate(72,60)"/>
<path d="M0 0 C0.99 0.33 1.98 0.66 3 1 C3 5.95 3 10.9 3 16 C0.36 16 -2.28 16 -5 16 C-5 12.7 -5 9.4 -5 6 C-3.68 5.67 -2.36 5.34 -1 5 C-0.67 3.35 -0.34 1.7 0 0 Z " fill="#FCFCFC" transform="translate(76,45)"/>
<path d="M0 0 C2.64 0 5.28 0 8 0 C8 2.64 8 5.28 8 8 C5.36 8 2.72 8 0 8 C0 5.36 0 2.72 0 0 Z " fill="#FCFCFC" transform="translate(71,36)"/>
<path d="M0 0 C2.31 0 4.62 0 7 0 C7.59732819 2.76264289 8 5.16032769 8 8 C8.33 8.66 8.66 9.32 9 10 C8.01 10 7.02 10 6 10 C5.34 9.01 4.68 8.02 4 7 C4 7.99 4 8.98 4 10 C2.68 9.67 1.36 9.34 0 9 C0 6.03 0 3.06 0 0 Z " fill="#323232" transform="translate(31,73)"/>
<path d="M0 0 C-0.14049518 1.47968324 -0.28754826 2.95874516 -0.4375 4.4375 C-0.51871094 5.26121094 -0.59992187 6.08492188 -0.68359375 6.93359375 C-1 9 -1 9 -2 10 C-3.66617115 10.04063832 -5.33388095 10.042721 -7 10 C-7.33 9.01 -7.66 8.02 -8 7 C-7.34 7 -6.68 7 -6 7 C-6 7.66 -6 8.32 -6 9 C-5.01 9 -4.02 9 -3 9 C-3 8.01 -3 7.02 -3 6 C-4.65 5.67 -6.3 5.34 -8 5 C-8 3.68 -8 2.36 -8 1 C-5.29120665 -0.35439668 -2.99066732 -0.06501451 0 0 Z " fill="#252525" transform="translate(59,76)"/>
<path d="M0 0 C1.32 0.33 2.64 0.66 4 1 C3.67 1.99 3.34 2.98 3 4 C4.32 4 5.64 4 7 4 C6.67 2.68 6.34 1.36 6 0 C7.32 0.33 8.64 0.66 10 1 C10 3.97 10 6.94 10 10 C8.68 9.67 7.36 9.34 6 9 C6.33 7.68 6.66 6.36 7 5 C5.68 5 4.36 5 3 5 C3.33 6.65 3.66 8.3 4 10 C2.68 9.67 1.36 9.34 0 9 C0 6.03 0 3.06 0 0 Z " fill="#000000" transform="translate(40,57)"/>
<path d="M0 0 C0 1.65 0 3.3 0 5 C-5.75 6.125 -5.75 6.125 -8 5 C-8 3.35 -8 1.7 -8 0 C-5.13822943 -1.43088528 -3.06624227 -0.59991697 0 0 Z " fill="#545454" transform="translate(59,61)"/>
<path d="M0 0 C0 1.65 0 3.3 0 5 C-5.75 6.125 -5.75 6.125 -8 5 C-8 3.35 -8 1.7 -8 0 C-5.13822943 -1.43088528 -3.06624227 -0.59991697 0 0 Z " fill="#545454" transform="translate(59,45)"/>
<path d="M0 0 C1.65 0 3.3 0 5 0 C5.66 2.31 6.32 4.62 7 7 C4.69 7 2.38 7 0 7 C-0.93423645 3.98968256 -1.04449911 3.13349732 0 0 Z " fill="#2D2F2C" transform="translate(82,76)"/>
<path d="M0 0 C0 0.99 0 1.98 0 3 C-0.99 3.33 -1.98 3.66 -3 4 C-2.01 4.33 -1.02 4.66 0 5 C-5.75 6.125 -5.75 6.125 -8 5 C-8 3.35 -8 1.7 -8 0 C-5.13822943 -1.43088528 -3.06624227 -0.59991697 0 0 Z " fill="#1E201E" transform="translate(49,77)"/>
<path d="M0 0 C0 0.99 0 1.98 0 3 C-0.99 3.33 -1.98 3.66 -3 4 C-2.01 4.33 -1.02 4.66 0 5 C-5.75 6.125 -5.75 6.125 -8 5 C-8 3.35 -8 1.7 -8 0 C-5.13822943 -1.43088528 -3.06624227 -0.59991697 0 0 Z " fill="#1E201E" transform="translate(89,61)"/>
<path d="M0 0 C0.94875 0.04125 1.8975 0.0825 2.875 0.125 C2.875 1.445 2.875 2.765 2.875 4.125 C2.215 4.125 1.555 4.125 0.875 4.125 C0.545 3.465 0.215 2.805 -0.125 2.125 C-0.785 2.125 -1.445 2.125 -2.125 2.125 C-2.125 4.105 -2.125 6.085 -2.125 8.125 C-0.475 8.125 1.175 8.125 2.875 8.125 C2.545 8.785 2.215 9.445 1.875 10.125 C-0.5 10.25 -0.5 10.25 -3.125 10.125 C-5.125 8.125 -5.125 8.125 -5.375 5.125 C-5.02345647 0.90647769 -4.22997422 0.16919897 0 0 Z " fill="#000000" transform="translate(46.125,40.875)"/>
<path d="M0 0 C0.99 0 1.98 0 3 0 C3.33 1.65 3.66 3.3 4 5 C4 3.35 4 1.7 4 0 C4.99 0 5.98 0 7 0 C7.33 2.31 7.66 4.62 8 7 C6.02 7 4.04 7 2 7 C1.34 4.69 0.68 2.38 0 0 Z " fill="#000000" transform="translate(61,76)"/>
<path d="M0 0 C0.99 0 1.98 0 3 0 C3.33 1.65 3.66 3.3 4 5 C4 3.35 4 1.7 4 0 C4.99 0 5.98 0 7 0 C7.33 2.31 7.66 4.62 8 7 C6.02 7 4.04 7 2 7 C1.34 4.69 0.68 2.38 0 0 Z " fill="#000000" transform="translate(61,60)"/>
<path d="M0 0 C0.99 0 1.98 0 3 0 C3.33 1.65 3.66 3.3 4 5 C4 3.35 4 1.7 4 0 C4.99 0 5.98 0 7 0 C7.33 2.31 7.66 4.62 8 7 C6.02 7 4.04 7 2 7 C1.34 4.69 0.68 2.38 0 0 Z " fill="#000000" transform="translate(61,44)"/>
<path d="M0 0 C0.66 0 1.32 0 2 0 C2 5.94 2 11.88 2 18 C1.67 18 1.34 18 1 18 C1 13.71 1 9.42 1 5 C0.34 5 -0.32 5 -1 5 C-0.67 3.35 -0.34 1.7 0 0 Z " fill="#F5F7F5" transform="translate(96,77)"/>
<path d="M0 0 C2.64 0 5.28 0 8 0 C8.33 0.66 8.66 1.32 9 2 C7.68 2 6.36 2 5 2 C4.67 3.32 4.34 4.64 4 6 C4.66 6.33 5.32 6.66 6 7 C4.02 7 2.04 7 0 7 C0.66 6.67 1.32 6.34 2 6 C2 4.35 2 2.7 2 1 C1.34 0.67 0.68 0.34 0 0 Z " fill="#000000" transform="translate(91,76)"/>
<path d="M0 0 C2.64 0 5.28 0 8 0 C8.33 0.66 8.66 1.32 9 2 C7.68 2 6.36 2 5 2 C4.67 3.32 4.34 4.64 4 6 C4.66 6.33 5.32 6.66 6 7 C4.02 7 2.04 7 0 7 C0.66 6.67 1.32 6.34 2 6 C2 4.35 2 2.7 2 1 C1.34 0.67 0.68 0.34 0 0 Z " fill="#000000" transform="translate(71,44)"/>
<path d="M0 0 C0.66 0 1.32 0 2 0 C2 0.66 2 1.32 2 2 C2.99 2.33 3.98 2.66 5 3 C4.01 3 3.02 3 2 3 C2 4.65 2 6.3 2 8 C3.32 7.67 4.64 7.34 6 7 C5.67 7.66 5.34 8.32 5 9 C3.35 8.67 1.7 8.34 0 8 C0 6.35 0 4.7 0 3 C-0.66 2.67 -1.32 2.34 -2 2 C-1.34 2 -0.68 2 0 2 C0 1.34 0 0.68 0 0 Z " fill="#000000" transform="translate(83,42)"/>
</svg>
